<mxfile host="65bd71144e">
    <diagram id="Tt-qOFzwBEnT3e2OWvfw" name="Page-1">
        <mxGraphModel dx="2307" dy="636" grid="1" gridSize="10" guides="1" tooltips="1" connect="1" arrows="1" fold="1" page="1" pageScale="1" pageWidth="827" pageHeight="1169" math="0" shadow="0">
            <root>
                <mxCell id="0"/>
                <mxCell id="1" parent="0"/>
                <mxCell id="3" value="&lt;font color=&quot;#000000&quot;&gt;1&lt;/font&gt;" style="text;html=1;strokeColor=none;fillColor=none;align=center;verticalAlign=middle;whiteSpace=wrap;rounded=1;arcSize=0;" vertex="1" parent="1">
                    <mxGeometry x="752" y="149" width="40" height="20" as="geometry"/>
                </mxCell>
                <mxCell id="4" value="&lt;font color=&quot;#000000&quot;&gt;1..*&lt;/font&gt;" style="text;html=1;strokeColor=none;fillColor=none;align=center;verticalAlign=middle;whiteSpace=wrap;rounded=1;arcSize=0;" vertex="1" parent="1">
                    <mxGeometry x="752" y="356" width="40" height="20" as="geometry"/>
                </mxCell>
                <mxCell id="65" value="id_avis : integer" style="text;strokeColor=none;fillColor=none;align=left;verticalAlign=top;spacingLeft=4;spacingRight=4;overflow=hidden;rotatable=0;points=[[0,0.5],[1,0.5]];portConstraint=eastwest;fontStyle=4;fontColor=#000000;" vertex="1" parent="1">
                    <mxGeometry x="-120" y="10" width="171" height="26" as="geometry"/>
                </mxCell>
                <mxCell id="31" value="composition : text" style="text;strokeColor=none;fillColor=none;align=left;verticalAlign=top;spacingLeft=4;spacingRight=4;overflow=hidden;rotatable=0;points=[[0,0.5],[1,0.5]];portConstraint=eastwest;rounded=0;shadow=0;glass=0;sketch=0;fontColor=#000000;" vertex="1" parent="1">
                    <mxGeometry x="410" y="534" width="170" height="26" as="geometry"/>
                </mxCell>
            </root>
        </mxGraphModel>
    </diagram>
</mxfile>